<?xml version="1.0" encoding="UTF-8" standalone="no"?>
<svg
   xmlns:dc="http://purl.org/dc/elements/1.1/"
   xmlns:cc="http://creativecommons.org/ns#"
   xmlns:rdf="http://www.w3.org/1999/02/22-rdf-syntax-ns#"
   xmlns:svg="http://www.w3.org/2000/svg"
   xmlns="http://www.w3.org/2000/svg"
   id="svg8"
   version="1.1"
   viewBox="0 0 72 72"
   height="72mm"
   width="72mm">
  <defs
     id="defs2" />
  <metadata
     id="metadata5">
    <rdf:RDF>
      <cc:Work
         rdf:about="">
        <dc:format>image/svg+xml</dc:format>
        <dc:type
           rdf:resource="http://purl.org/dc/dcmitype/StillImage" />
        <dc:title></dc:title>
      </cc:Work>
    </rdf:RDF>
  </metadata>
  <g
     transform="translate(0,-225)"
     id="layer1">
    <path
       id="path909"
       d="m 12.929919,287.86229 c -0.955341,-0.20797 -1.681124,-0.61516 -2.428214,-1.36232 -1.7629194,-1.7631 -2.0035693,-4.53732 -0.563196,-6.49257 0.205657,-0.27917 4.378238,-4.96313 9.272401,-10.40881 l 8.898478,-9.9012 -0.555449,-0.52064 c -0.331842,-0.31104 -0.702332,-0.81987 -0.920307,-1.26397 -0.329937,-0.67219 -0.364763,-0.84063 -0.363946,-1.76017 8.51e-4,-0.91965 0.03633,-1.08967 0.371566,-1.77822 0.511357,-1.05032 1.333485,-1.81241 3.961252,-3.67194 l 2.195005,-1.5533 -0.03723,-2.87214 c -0.05086,-3.92453 0.160864,-4.8851 1.357132,-6.15743 1.300178,-1.38282 3.276148,-1.60337 5.289434,-0.59037 0.230076,0.1158 1.420442,0.9614 2.645259,1.87919 1.224821,0.9178 2.284308,1.70371 2.354416,1.74648 0.0701,0.0428 1.267534,-0.32399 2.660941,-0.81497 2.908687,-1.02492 3.590353,-1.18473 4.738404,-1.11091 1.572548,0.10109 2.819518,0.93861 3.491747,2.34508 0.324536,0.67901 0.350179,0.82068 0.347097,1.91754 -0.0033,1.18377 -0.0038,1.18581 -0.96823,4.07087 l -0.964902,2.8865 1.620777,2.18935 c 0.891425,1.20413 1.765618,2.44315 1.942646,2.75333 0.456217,0.79938 0.680603,1.66006 0.680603,2.61056 0,1.89699 -1.03808,3.22013 -3.071405,3.91481 -0.647633,0.22126 -0.937346,0.2391 -3.907377,0.24071 l -3.207878,10e-4 -1.632382,2.28085 c -1.953401,2.7294 -2.47614,3.28823 -3.596421,3.84481 -0.769801,0.38245 -0.917341,0.41654 -1.803394,0.41654 -0.86071,0 -1.045096,-0.0395 -1.706121,-0.36561 -0.446522,-0.22027 -0.951069,-0.59053 -1.26929,-0.93142 l -0.528168,-0.56582 -10.153553,9.15648 c -10.814769,9.75275 -10.665666,9.63081 -12.111259,9.90552 -0.753875,0.14327 -1.245998,0.13397 -2.038448,-0.0386 z m 11.891337,-14.2932 c 7.259587,-6.54844 10.618837,-9.64871 10.575992,-9.76057 -0.03455,-0.0902 -0.169947,-0.5175 -0.300919,-0.94958 l -0.238127,-0.7856 -0.956898,-0.29247 -0.956895,-0.29249 -0.536832,0.60237 c -0.295255,0.33129 -4.5954,5.11987 -9.555869,10.64127 -4.960473,5.52139 -9.019542,10.12773 -9.020158,10.2363 -4.26e-4,0.10856 0.07809,0.19738 0.174907,0.19738 0.09681,0 4.963467,-4.31847 10.814799,-9.59661 z m 18.275497,-11.15798 c 1.065191,-1.51993 2.02024,-2.84513 2.122331,-2.9449 0.16437,-0.16063 0.410155,-0.17001 2.147069,-0.082 1.078797,0.0546 2.765575,0.0855 3.748396,0.0686 l 1.786944,-0.031 -2.256919,-3.02137 c -1.241304,-1.66176 -2.256919,-3.061 -2.256919,-3.10944 0,-0.0485 0.426167,-1.2325 0.947036,-2.63125 1.039004,-2.79013 1.565851,-4.3798 1.480048,-4.46579 -0.03055,-0.0306 -1.655845,0.48519 -3.611765,1.14623 -1.955919,0.66104 -3.616564,1.1657 -3.690322,1.12149 -0.07376,-0.0443 -0.741952,-0.57002 -1.484877,-1.16848 -1.953284,-1.5734 -4.203677,-3.26813 -4.339697,-3.26813 -0.07929,0 -0.111844,1.22796 -0.100548,3.79343 l 0.01671,3.79344 -2.459643,1.65059 c -2.712672,1.82039 -3.797433,2.60039 -3.721793,2.67618 0.02739,0.0274 1.655662,0.55086 3.618343,1.1631 1.96268,0.61222 3.584848,1.13089 3.604818,1.15258 0.01997,0.0217 0.441018,1.46068 0.93566,3.19776 0.494644,1.73706 0.982826,3.35815 1.084851,3.60239 0.159375,0.38155 0.207191,0.42128 0.339536,0.282 0.08472,-0.0892 1.025559,-1.40569 2.09075,-2.92562 z m 1.205636,-4.62641 c -0.430141,-0.33905 -0.581004,-0.89803 -0.375433,-1.39104 0.171006,-0.41012 0.662415,-0.75034 1.083771,-0.75034 0.421358,0 0.912768,0.34022 1.083773,0.75034 0.322932,0.77448 -0.242201,1.61839 -1.083773,1.61839 -0.250536,0 -0.536234,-0.0917 -0.708338,-0.22735 z m -3.418239,-4.61571 c -1.867382,-0.45858 -2.47324,-2.82364 -1.052768,-4.1096 1.618878,-1.46556 4.100069,-0.1883 3.917591,2.01671 -0.11497,1.38927 -1.527625,2.4213 -2.864823,2.09289 z m 9.134721,19.07684 c -1.563619,-0.73319 -1.873486,-2.80014 -0.58918,-3.93011 0.526087,-0.46286 1.093487,-0.64071 1.844912,-0.57827 2.168615,0.18021 2.884058,3.03739 1.078626,4.30758 -0.622588,0.43801 -1.64155,0.52567 -2.334358,0.2008 z m 11.181521,-2.35134 c -0.636334,-0.40893 -0.742072,-1.32326 -0.214201,-1.85221 0.804396,-0.80606 2.201999,-0.0738 1.992713,1.04417 -0.148007,0.79057 -1.119129,1.23178 -1.778512,0.80804 z m -3.608318,-15.26212 c -0.820881,-0.11037 -1.349724,-0.49957 -1.611227,-1.18572 -0.352725,-0.92551 0.0162,-1.92736 0.883085,-2.39814 0.523236,-0.28416 4.071017,-0.22669 4.760393,0.0771 0.642739,0.28325 0.980548,0.80027 1.037392,1.58773 0.05544,0.76798 -0.135231,1.20095 -0.728892,1.65518 -0.405788,0.31048 -0.441822,0.31633 -2.054416,0.33329 -0.902761,0.01 -1.93161,-0.0217 -2.286335,-0.0694 z m -31.421813,-6.37375 c -1.40308,-0.50116 -1.985888,-2.36014 -1.125101,-3.58873 1.269113,-1.81137 4.114887,-1.08086 4.295591,1.10268 0.149156,1.80233 -1.488829,3.08672 -3.17049,2.48605 z m 30.434584,-7.13293 c -0.64476,-0.23618 -0.952949,-1.06215 -0.624413,-1.67346 0.574536,-1.06905 2.200311,-0.68856 2.200311,0.51496 0,0.38541 -0.06964,0.54092 -0.382719,0.85465 -0.373157,0.37393 -0.744035,0.46838 -1.193179,0.30385 z m -11.018093,-2.42355 c -0.709304,-0.1586 -1.509756,-0.98144 -1.690927,-1.73821 -0.265449,-1.10879 0.22868,-2.1757 1.24201,-2.68171 0.986546,-0.49263 1.976288,-0.3358 2.74555,0.43505 0.763202,0.76477 0.925592,1.763 0.444261,2.73089 -0.315106,0.63364 -0.862199,1.07409 -1.572172,1.26569 -0.5103,0.13771 -0.500045,0.13782 -1.168722,-0.0121 z"
       style="fill:#ffffff;stroke-width:0.11268038;fill-opacity:0.78431374" />
  </g>
</svg>
