<?xml version="1.0" encoding="iso-8859-1"?>
<!-- Generator: Adobe Illustrator 17.0.1, SVG Export Plug-In . SVG Version: 6.00 Build 0)  -->
<!DOCTYPE svg PUBLIC "-//W3C//DTD SVG 1.1//EN" "http://www.w3.org/Graphics/SVG/1.1/DTD/svg11.dtd">
<svg version="1.1" id="Layer_1" xmlns="http://www.w3.org/2000/svg" xmlns:xlink="http://www.w3.org/1999/xlink" x="0px" y="0px"
	 width="64px" height="64px" viewBox="0 0 64 64" style="enable-background:new 0 0 64 64;" xml:space="preserve">
<g id="icon-m-developer-mode">
	<rect id="icon-m-developer-mode_1_" style="opacity:0;fill:#FFFFFF;" width="64" height="64"/>
	<path style="fill:#FFFFFF;" d="M25.306,55.8c-0.474,0-0.938-0.092-1.378-0.274l-2.857-1.183c-0.89-0.367-1.584-1.063-1.954-1.955
		c-0.369-0.892-0.369-1.874,0-2.766l0.663-1.604c0.109-0.263,0.033-0.568-0.186-0.745c-1.055-0.857-2.019-1.821-2.867-2.866
		c-0.07-0.087-0.153-0.149-0.254-0.191c-0.15-0.063-0.334-0.064-0.494,0.002l-1.603,0.664c-0.422,0.174-0.871,0.263-1.334,0.263
		c-1.479,0-2.839-0.892-3.385-2.218l-1.184-2.855c-0.762-1.837,0.114-3.953,1.951-4.718l1.609-0.667
		c0.266-0.11,0.425-0.376,0.395-0.66c-0.14-1.336-0.142-2.699-0.003-4.051c0.031-0.289-0.127-0.553-0.393-0.664l-1.604-0.665
		c-0.891-0.369-1.584-1.063-1.954-1.955c-0.369-0.892-0.369-1.873,0-2.762l1.185-2.857c0.558-1.353,1.868-2.229,3.337-2.229
		c0.474,0,0.938,0.092,1.378,0.274l1.606,0.665c0.268,0.109,0.572,0.027,0.75-0.189c0.849-1.046,1.813-2.011,2.862-2.864
		c0.224-0.181,0.299-0.479,0.189-0.744l-0.664-1.608c-0.761-1.838,0.114-3.955,1.952-4.718l2.856-1.183
		c0.421-0.174,0.87-0.263,1.334-0.263c1.476,0,2.837,0.89,3.387,2.215l0.664,1.607c0.101,0.241,0.334,0.399,0.594,0.399
		c1.469-0.147,2.777-0.145,4.121-0.007c0.321,0,0.563-0.152,0.664-0.395l0.662-1.604C35.913,9.075,37.224,8.2,38.689,8.2
		c0.476,0,0.94,0.093,1.382,0.276l2.854,1.182c0.891,0.369,1.585,1.063,1.954,1.955c0.369,0.892,0.369,1.873,0,2.764l-0.664,1.604
		c-0.11,0.267-0.034,0.567,0.188,0.747c1.048,0.851,2.011,1.814,2.864,2.864c0.178,0.22,0.484,0.298,0.742,0.191l1.609-0.665
		c0.421-0.174,0.87-0.262,1.334-0.262c1.474,0,2.835,0.89,3.387,2.215l1.183,2.86c0.369,0.887,0.369,1.868,0,2.76
		c-0.37,0.893-1.063,1.588-1.954,1.957l-1.605,0.666c-0.263,0.109-0.426,0.38-0.396,0.659c0.142,1.358,0.142,2.722,0,4.057
		c-0.029,0.284,0.13,0.552,0.396,0.663l1.604,0.664c0.891,0.368,1.585,1.063,1.954,1.954s0.369,1.873,0,2.763l-1.182,2.855
		c-0.562,1.355-1.872,2.229-3.339,2.229c-0.001,0-0.001,0-0.001,0c-0.474,0-0.938-0.092-1.378-0.274l-1.605-0.665
		c-0.255-0.104-0.573-0.028-0.748,0.189c-0.849,1.044-1.812,2.008-2.864,2.863c-0.222,0.18-0.299,0.485-0.19,0.748l0.664,1.604
		c0.762,1.842-0.114,3.96-1.952,4.722l-2.856,1.183c-0.422,0.174-0.87,0.262-1.334,0.262c-1.477,0-2.837-0.89-3.386-2.214
		l-0.665-1.611c-0.1-0.239-0.333-0.395-0.594-0.395c-1.471,0.146-2.777,0.145-4.119,0.005c-0.004-0.001-0.008-0.001-0.011-0.001
		c-0.324,0-0.554,0.155-0.653,0.395l-0.662,1.604C28.085,54.925,26.774,55.8,25.306,55.8z M16.229,42.168
		c0.348,0,0.688,0.067,1.01,0.2c0.414,0.172,0.774,0.443,1.047,0.785c0.756,0.932,1.622,1.798,2.568,2.566
		c0.902,0.729,1.22,1.991,0.773,3.065l-0.663,1.602c-0.165,0.398-0.165,0.838,0,1.236c0.165,0.398,0.474,0.708,0.87,0.872
		l2.857,1.183c0.808,0.335,1.774-0.075,2.105-0.872l0.663-1.606c0.45-1.077,1.545-1.739,2.72-1.616
		c1.202,0.123,2.438,0.124,3.634-0.001c1.176-0.127,2.272,0.54,2.719,1.615l0.665,1.611c0.312,0.75,1.347,1.182,2.107,0.869
		l2.855-1.183c0.82-0.34,1.21-1.286,0.87-2.109l-0.664-1.604c-0.445-1.077-0.125-2.339,0.78-3.067
		c0.941-0.766,1.808-1.632,2.569-2.569c0.725-0.891,1.995-1.216,3.063-0.777l1.607,0.666c0.812,0.335,1.774-0.074,2.105-0.872
		l1.182-2.855c0.165-0.397,0.164-0.835,0-1.232c-0.165-0.398-0.475-0.708-0.871-0.872l-1.606-0.665
		c-1.091-0.453-1.74-1.546-1.619-2.719c0.127-1.198,0.127-2.421,0.001-3.637c-0.125-1.151,0.54-2.27,1.617-2.717l1.606-0.666
		c0.396-0.165,0.706-0.475,0.871-0.874c0.165-0.398,0.165-0.834,0.001-1.229l-1.182-2.858c-0.313-0.751-1.343-1.186-2.11-0.871
		l-1.606,0.664c-1.057,0.44-2.341,0.116-3.063-0.78c-0.765-0.94-1.63-1.806-2.569-2.568c-0.901-0.729-1.221-1.99-0.776-3.065
		l0.664-1.605c0.165-0.397,0.164-0.835,0-1.233c-0.165-0.398-0.475-0.708-0.872-0.872l-2.854-1.183
		c-0.812-0.337-1.774,0.073-2.106,0.871l-0.663,1.604c-0.449,1.08-1.543,1.746-2.72,1.617c-1.198-0.122-2.438-0.123-3.635,0.003
		c-1.167,0.119-2.27-0.541-2.718-1.618l-0.665-1.609c-0.311-0.75-1.343-1.188-2.107-0.87l-2.855,1.183
		c-0.82,0.34-1.21,1.286-0.87,2.106l0.664,1.608c0.446,1.073,0.125,2.333-0.779,3.063c-0.94,0.764-1.806,1.629-2.569,2.572
		c-0.73,0.894-2.009,1.216-3.068,0.773l-1.603-0.663c-0.807-0.334-1.775,0.074-2.104,0.87l-1.185,2.859
		c-0.165,0.396-0.164,0.833,0,1.231s0.474,0.708,0.871,0.872l1.607,0.666c1.092,0.455,1.74,1.547,1.614,2.719
		c-0.124,1.21-0.122,2.435,0.004,3.634c0.123,1.172-0.527,2.264-1.618,2.717l-1.608,0.667c-0.819,0.341-1.21,1.285-0.871,2.104
		l1.185,2.857c0.311,0.752,1.34,1.188,2.106,0.871l1.604-0.665C15.542,42.235,15.881,42.168,16.229,42.168z"/>
	<path style="opacity:0.6;fill:#FFFFFF;" d="M31.996,44.168c-1.598,0-3.164-0.313-4.652-0.93c-6.196-2.565-9.15-9.695-6.585-15.892
		c1.892-4.564,6.307-7.513,11.246-7.513c1.598,0,3.163,0.313,4.651,0.929c6.195,2.568,9.146,9.699,6.58,15.895
		C41.346,41.22,36.934,44.168,31.996,44.168z M32.004,21.833c-4.128,0-7.817,2.464-9.398,6.278
		c-2.144,5.178,0.325,11.135,5.503,13.279c1.245,0.516,2.553,0.777,3.887,0.777c4.126,0,7.813-2.464,9.392-6.277
		c2.145-5.177-0.321-11.135-5.498-13.281C34.646,22.094,33.338,21.833,32.004,21.833z"/>
</g>
</svg>
