<?xml version="1.0" encoding="iso-8859-1"?>
<!-- Generator: Adobe Illustrator 22.1.0, SVG Export Plug-In . SVG Version: 6.00 Build 0)  -->
<svg version="1.1" id="Layer_1" xmlns="http://www.w3.org/2000/svg" xmlns:xlink="http://www.w3.org/1999/xlink" x="0px" y="0px"	 width="64" height="64" viewBox="0 0 64 64" style="enable-background:new 0 0 64 64;" xml:space="preserve">
<g id="icon-m-sd-card_1_">
	<g style="opacity:0;">
		<rect id="icon-m-sd-card_2_" x="1" y="1" style="fill:#FFFFFF;" width="64" height="64"/>
		<path style="fill:#FFFFFF;" d="M66,66H0V0h66V66z M2,64h62V2H2V64z"/>
	</g>
	<g>
		<path style="fill:#FFFFFF;" d="M47,58H19c-2.757,0-5-2.243-5-5V15c0-2.757,2.243-5,5-5h16.195c2.469,0,5.797,1.34,7.577,3.051
			l3.883,3.732c1.581,1.521,3.357,3.214,3.949,3.765c1.104,1.027,1.396,4.2,1.396,5.735V53C52,55.757,49.757,58,47,58z M19,12
			c-1.654,0-3,1.346-3,3v38c0,1.654,1.346,3,3,3h28c1.654,0,3-1.346,3-3V26.282c0-2.238-0.5-3.976-0.768-4.28
			c-0.585-0.544-2.373-2.248-3.964-3.777l-3.883-3.731C39.98,13.142,37.146,12,35.195,12H19z"/>
	</g>
	<path style="opacity:0.6;fill:#FFFFFF;" d="M19.839,29.809c-0.552,0-1-0.448-1-1v-11c0-0.552,0.448-1,1-1s1,0.448,1,1v11
		C20.839,29.361,20.392,29.809,19.839,29.809z"/>
	<path style="opacity:0.6;fill:#FFFFFF;" d="M24.779,29.809c-0.552,0-1-0.448-1-1v-11c0-0.552,0.448-1,1-1s1,0.448,1,1v11
		C25.779,29.361,25.332,29.809,24.779,29.809z"/>
	<path style="opacity:0.6;fill:#FFFFFF;" d="M29.72,29.809c-0.552,0-1-0.448-1-1v-11c0-0.552,0.448-1,1-1s1,0.448,1,1v11
		C30.72,29.361,30.272,29.809,29.72,29.809z"/>
	<path style="opacity:0.6;fill:#FFFFFF;" d="M34.66,29.809c-0.553,0-1-0.448-1-1v-11c0-0.552,0.447-1,1-1s1,0.448,1,1v11
		C35.66,29.361,35.213,29.809,34.66,29.809z"/>
	<path style="opacity:0.6;fill:#FFFFFF;" d="M39.6,29.809c-0.553,0-1-0.448-1-1v-11c0-0.552,0.447-1,1-1s1,0.448,1,1v11
		C40.6,29.361,40.152,29.809,39.6,29.809z"/>
</g>
</svg>
