<?xml version="1.0" encoding="iso-8859-1"?>
<!-- Generator: Adobe Illustrator 17.0.1, SVG Export Plug-In . SVG Version: 6.00 Build 0)  -->
<!DOCTYPE svg PUBLIC "-//W3C//DTD SVG 1.1//EN" "http://www.w3.org/Graphics/SVG/1.1/DTD/svg11.dtd">
<svg version="1.1" id="Layer_1" xmlns="http://www.w3.org/2000/svg" xmlns:xlink="http://www.w3.org/1999/xlink" x="0px" y="0px"
	 width="64px" height="64px" viewBox="0 0 64 64" style="enable-background:new 0 0 64 64;" xml:space="preserve">
<g id="icon-m-camera">
	<g>
		<path style="fill:#FFFFFF;" d="M51,49H13c-2.757,0-5-2.243-5-5V20c0-2.757,2.243-5,5-5h38c2.757,0,5,2.243,5,5v24
			C56,46.757,53.757,49,51,49z M13,17c-1.654,0-3,1.346-3,3v24c0,1.654,1.346,3,3,3h38c1.654,0,3-1.346,3-3V20c0-1.654-1.346-3-3-3
			H13z"/>
		<path style="opacity:0.6;fill:#FFFFFF;" d="M39.978,43.068c-6.104,0-11.069-4.965-11.069-11.068
			c0-6.103,4.966-11.068,11.069-11.068S51.046,25.897,51.046,32C51.046,38.104,46.081,43.068,39.978,43.068z M39.978,22.932
			c-5.001,0-9.069,4.068-9.069,9.068c0,5,4.068,9.068,9.069,9.068c5,0,9.068-4.068,9.068-9.068
			C49.046,27,44.978,22.932,39.978,22.932z"/>
		<circle style="fill:#FFFFFF;" cx="39.977" cy="32" r="3.17"/>
		<g style="opacity:0.6;">
			<path style="fill:#FFFFFF;" d="M21.694,27.977h-8.19c-1.103,0-2-0.897-2-2v-3.045c0-1.103,0.897-2,2-2h8.19c1.103,0,2,0.897,2,2
				v3.045C23.694,27.08,22.797,27.977,21.694,27.977z M21.694,25.977v1V25.977L21.694,25.977L21.694,25.977z M13.504,22.932v3.045
				h8.188l0.003-3.045H13.504z"/>
		</g>
	</g>
	<rect id="icon-m-camera_1_" style="opacity:0;fill:#FFFFFF;" width="64" height="64"/>
</g>
</svg>
