<?xml version="1.0" encoding="iso-8859-1"?>
<!-- Generator: Adobe Illustrator 17.0.1, SVG Export Plug-In . SVG Version: 6.00 Build 0)  -->
<!DOCTYPE svg PUBLIC "-//W3C//DTD SVG 1.1//EN" "http://www.w3.org/Graphics/SVG/1.1/DTD/svg11.dtd">
<svg version="1.1" id="Layer_1" xmlns="http://www.w3.org/2000/svg" xmlns:xlink="http://www.w3.org/1999/xlink" x="0px" y="0px"
	 width="64px" height="64px" viewBox="0 0 64 64" style="enable-background:new 0 0 64 64;" xml:space="preserve">
<g id="icon-m-video">
	<rect id="icon-m-video_2_" style="opacity:0;fill:#FFFFFF;" width="64" height="64"/>
	<g>
		<path style="opacity:0.5;fill:#FFFFFF;" d="M59.6,44.273c0,2.246-1.556,2.994-3.673,1.662L37.042,33.979
			c-2.116-1.335-2.071-3.515,0.044-4.85l18.817-11.955c2.118-1.332,3.696-0.586,3.696,1.662V44.273z"/>
		<path style="fill:#FFFFFF;" d="M38.372,43.686c0,2.092-1.637,3.789-3.656,3.789H8.256c-2.019,0-3.656-1.696-3.656-3.789v-23.3
			c0-2.092,1.637-3.789,3.656-3.789h26.459c2.019,0,3.656,1.696,3.656,3.789V43.686z"/>
	</g>
</g>
</svg>
