<?xml version="1.0" encoding="iso-8859-1"?>
<!-- Generator: Adobe Illustrator 17.0.1, SVG Export Plug-In . SVG Version: 6.00 Build 0)  -->
<!DOCTYPE svg PUBLIC "-//W3C//DTD SVG 1.1//EN" "http://www.w3.org/Graphics/SVG/1.1/DTD/svg11.dtd">
<svg version="1.1" id="Layer_1" xmlns="http://www.w3.org/2000/svg" xmlns:xlink="http://www.w3.org/1999/xlink" x="0px" y="0px"
	 width="64px" height="64px" viewBox="0 0 64 64" style="enable-background:new 0 0 64 64;" xml:space="preserve">
<g id="icon-m-image">
	<rect id="icon-m-image_1_" style="opacity:0;fill:#FFFFFF;" width="64" height="64"/>
	<path style="opacity:0.5;fill:#FFFFFF;" d="M51.5,12.5h-40c-2.209,0-4,1.791-4,4v30c0,2.209,1.791,4,4,4h40c2.209,0,4-1.791,4-4
		v-30C55.5,14.291,53.709,12.5,51.5,12.5z"/>
	<path style="fill:#FFFFFF;" d="M55.5,46.5V29.562l-4.095-4.182c-1.986-1.986-5.151-1.986-7.136,0L30.205,39.488
		c-1.986,1.987-5.215,1.987-7.202-0.001l-1.04-1.048c-1.986-1.988-5.231-1.988-7.217-0.001L7.5,45.688V46.5c0,2.209,1.791,4,4,4h40
		C53.709,50.5,55.5,48.709,55.5,46.5z"/>
	<circle style="fill:#FFFFFF;" cx="21.521" cy="24.594" r="5.625"/>
</g>
</svg>
