<?xml version="1.0" encoding="iso-8859-1"?>
<!-- Generator: Adobe Illustrator 17.0.1, SVG Export Plug-In . SVG Version: 6.00 Build 0)  -->
<!DOCTYPE svg PUBLIC "-//W3C//DTD SVG 1.1//EN" "http://www.w3.org/Graphics/SVG/1.1/DTD/svg11.dtd">
<svg version="1.1" id="Layer_1" xmlns="http://www.w3.org/2000/svg" xmlns:xlink="http://www.w3.org/1999/xlink" x="0px" y="0px"
	 width="64px" height="64px" viewBox="0 0 64 64" style="enable-background:new 0 0 64 64;" xml:space="preserve">
<g id="icon-m-sync">
	<rect id="icon-m-sync_1_" style="opacity:0;fill:#FFFFFF;" width="64" height="64"/>
	<g>
		<path style="opacity:0.6;fill:#FFFFFF;" d="M32,56.5c-1.258,0-2.523-0.097-3.79-0.292c-6.462-0.998-12.145-4.454-16-9.729
			c-3.858-5.28-5.425-11.75-4.412-18.219c0.056-0.356,0.298-0.654,0.635-0.781c0.337-0.126,0.717-0.063,0.993,0.168l10.808,9.019
			c0.25,0.209,0.383,0.526,0.356,0.851c-0.027,0.325-0.211,0.616-0.493,0.78l-7.827,4.568c0.462,0.837,0.98,1.649,1.553,2.434
			c3.54,4.845,8.757,8.017,14.691,8.934c5.938,0.918,11.881-0.534,16.735-4.085c0.448-0.327,1.072-0.229,1.397,0.216
			c0.326,0.446,0.229,1.072-0.216,1.397C42.183,54.869,37.164,56.5,32,56.5z M9.565,30.366c-0.284,3.698,0.344,7.354,1.818,10.701
			l6.477-3.78L9.565,30.366z"/>
		<path style="fill:#FFFFFF;" d="M55.214,36.586c-0.232,0-0.462-0.081-0.646-0.236l-10.619-8.98
			c-0.246-0.208-0.377-0.521-0.352-0.842s0.203-0.61,0.479-0.776l7.642-4.633c-0.46-0.83-0.975-1.637-1.543-2.416
			c-3.54-4.843-8.757-8.016-14.69-8.932c-5.936-0.918-11.88,0.533-16.736,4.084c-0.447,0.327-1.072,0.229-1.397-0.217
			c-0.326-0.446-0.229-1.072,0.217-1.397c5.288-3.866,11.76-5.444,18.222-4.446c6.463,0.999,12.145,4.453,16,9.729
			c0.803,1.099,1.507,2.25,2.109,3.441c0,0,0,0.001,0.001,0.001c0.028,0.048,0.053,0.097,0.073,0.147
			c2.233,4.496,3.022,9.563,2.229,14.629c-0.057,0.357-0.301,0.656-0.639,0.783C55.449,36.565,55.331,36.586,55.214,36.586z
			 M46.302,26.74l8.135,6.879c0.281-3.7-0.349-7.356-1.827-10.704L46.302,26.74z"/>
	</g>
</g>
</svg>
