<?xml version="1.0" encoding="UTF-8" standalone="no"?>
<svg
   height="32px"
   id="Layer_1"
   style="enable-background:new 0 0 32 32;"
   version="1.1"
   viewBox="0 0 32 32"
   width="32px"
   xml:space="preserve"
   sodipodi:docname="icon-m-controls.svg"
   inkscape:version="1.2.2 (b0a8486541, 2022-12-01)"
   xmlns:inkscape="http://www.inkscape.org/namespaces/inkscape"
   xmlns:sodipodi="http://sodipodi.sourceforge.net/DTD/sodipodi-0.dtd"
   xmlns="http://www.w3.org/2000/svg"
   xmlns:svg="http://www.w3.org/2000/svg"><defs
     id="defs1751" /><sodipodi:namedview
     id="namedview1749"
     pagecolor="#ffffff"
     bordercolor="#000000"
     borderopacity="0.25"
     inkscape:showpageshadow="2"
     inkscape:pageopacity="0.0"
     inkscape:pagecheckerboard="true"
     inkscape:deskcolor="#d1d1d1"
     showgrid="false"
     inkscape:zoom="25.838233"
     inkscape:cx="14.145704"
     inkscape:cy="12.675015"
     inkscape:window-width="2560"
     inkscape:window-height="1519"
     inkscape:window-x="0"
     inkscape:window-y="0"
     inkscape:window-maximized="1"
     inkscape:current-layer="Layer_1" /><path
     style="fill:#ffffff;stroke:#ffffff;stroke-width:0.779994;stroke-opacity:1"
     d="M 3.8286238,9.174186 H 28.0172 c 1.112675,0 2.015715,-0.540869 2.015715,-1.207297 0,-0.666427 -0.90304,-1.207296 -2.015715,-1.207296 H 3.8286238 c -1.1126745,0 -2.0157147,0.540869 -2.0157147,1.207296 0,0.666428 0.9030402,1.207297 2.0157147,1.207297 z"
     id="path1746" /><circle
     style="fill:#ffffff;stroke:#ffffff;stroke-width:2.635;stroke-opacity:1;fill-opacity:1;stroke-dasharray:none"
     id="path2285"
     cx="6.1662798"
     cy="7.9782648"
     r="2.4824712" /><circle
     style="fill:#ffffff;fill-opacity:1;stroke:#ffffff;stroke-width:2.635;stroke-dasharray:none;stroke-opacity:1"
     id="circle2339"
     cx="24.833836"
     cy="15.954468"
     r="2.4824712" /><circle
     style="fill:#ffffff;fill-opacity:1;stroke:#ffffff;stroke-width:2.635;stroke-opacity:1;stroke-dasharray:none"
     id="circle2341"
     cx="15.823349"
     cy="23.93067"
     r="2.4824712" /><path
     style="fill:#ffffff;stroke:#ffffff;stroke-width:0.779994;stroke-opacity:1"
     d="M 3.828624,17.195693 H 28.0172 c 1.112675,0 2.015715,-0.540869 2.015715,-1.207297 0,-0.666427 -0.90304,-1.207296 -2.015715,-1.207296 H 3.828624 c -1.1126745,0 -2.0157147,0.540869 -2.0157147,1.207296 0,0.666428 0.9030402,1.207297 2.0157147,1.207297 z"
     id="path2412" /><path
     style="fill:#ffffff;stroke:#ffffff;stroke-width:0.779994;stroke-opacity:1"
     d="M 3.8286241,25.2172 H 28.017199 c 1.112675,0 2.015715,-0.540869 2.015715,-1.207297 0,-0.666427 -0.90304,-1.207296 -2.015715,-1.207296 H 3.8286241 c -1.1126745,0 -2.0157147,0.540869 -2.0157147,1.207296 0,0.666428 0.9030402,1.207297 2.0157147,1.207297 z"
     id="path2414" /></svg>
